<svg width="30" height="30" viewBox="0 0 30 30" fill="none" xmlns="http://www.w3.org/2000/svg">
<path d="M6.65256 10.497L7.01539 10.5944C8.6688 11.0327 10.366 10.0465 10.8044 8.39313L11.9269 4.15612H11.9342C12.3117 2.82414 13.5316 1.84768 14.9854 1.84281C16.4415 1.83793 17.6688 2.81196 18.0536 4.14394H18.056L19.2005 8.37365C19.6485 10.0271 21.3506 11.0035 23.0016 10.5555L23.3644 10.4581C25.0179 10.01 25.9943 8.3079 25.5463 6.65693C25.332 5.8631 24.8109 5.18858 24.0974 4.77949L16.4805 0.396376C15.5552 -0.134468 14.418 -0.132033 13.4975 0.403681L5.89038 4.82089C5.17934 5.23485 4.66311 5.9118 4.45126 6.70563C4.01295 8.35904 4.99915 10.0563 6.65256 10.4946V10.497Z" fill="#FF6900"/>
<path d="M23.9975 11.6077L23.732 11.8732C22.5242 13.0858 22.5291 15.0485 23.7442 16.2563L26.8514 19.3488L26.8465 19.3561C27.8108 20.3496 28.047 21.8959 27.3238 23.1548C26.6006 24.4186 25.1419 24.9933 23.7978 24.6597L19.5608 23.5395C17.9074 23.1012 16.2101 24.0874 15.7694 25.7408L15.672 26.1037C15.2336 27.7571 16.2199 29.4543 17.8733 29.8926C18.6671 30.1045 19.5145 29.99 20.2231 29.5761L27.8278 25.1662C28.7507 24.6305 29.3157 23.6443 29.3132 22.5777L29.2913 13.7822C29.2913 12.9592 28.9601 12.1727 28.3782 11.5931C27.1655 10.3853 25.2028 10.3902 23.995 11.6053L23.9975 11.6077Z" fill="#FF6900"/>
<path d="M14.3619 26.0719L14.2645 25.7091C13.8164 24.0557 12.1143 23.0792 10.4633 23.5272L6.2336 24.6717L6.22873 24.6644C4.88701 25.0029 3.43084 24.4355 2.70032 23.179C1.9698 21.9201 2.19869 20.3714 3.16055 19.373L6.25065 16.2634C7.45844 15.0508 7.45357 13.0881 6.23847 11.8803L5.97305 11.6149C4.76039 10.4071 2.79772 10.412 1.58993 11.6271C1.00551 12.2091 0.684082 12.998 0.684082 13.8211L0.701128 22.6141C0.701128 23.6807 1.27337 24.6644 2.19869 25.1953L9.82777 29.5735C10.5412 29.9826 11.3862 30.0922 12.18 29.8779C13.8335 29.4298 14.8099 27.7277 14.3619 26.0768V26.0719Z" fill="#FF6900"/>
<ellipse cx="15.0008" cy="16.1585" rx="4.25523" ry="4.25522" fill="#FF6900"/>
</svg>
